<svg xmlns="http://www.w3.org/2000/svg" width="49" height="49" viewBox="0 0 49 49" fill="none"><mask id="mask0_13_433" style="mask-type:alpha" maskUnits="userSpaceOnUse" x="0" y="0" width="49" height="49"><rect x="0.5" y="0.932373" width="48" height="48" fill="#D9D9D9"></rect></mask><g mask="url(#mask0_13_433)"><path d="M24.5 44.9324C21.7333 44.9324 19.1333 44.4074 16.7 43.3574C14.2667 42.3074 12.15 40.8824 10.35 39.0824C8.55 37.2824 7.125 35.1657 6.075 32.7324C5.025 30.299 4.5 27.699 4.5 24.9324C4.5 22.1657 5.025 19.5657 6.075 17.1324C7.125 14.699 8.55 12.5824 10.35 10.7824C12.15 8.98237 14.2667 7.55737 16.7 6.50737C19.1333 5.45737 21.7333 4.93237 24.5 4.93237C27.2667 4.93237 29.8667 5.45737 32.3 6.50737C34.7333 7.55737 36.85 8.98237 38.65 10.7824C40.45 12.5824 41.875 14.699 42.925 17.1324C43.975 19.5657 44.5 22.1657 44.5 24.9324C44.5 27.699 43.975 30.299 42.925 32.7324C41.875 35.1657 40.45 37.2824 38.65 39.0824C36.85 40.8824 34.7333 42.3074 32.3 43.3574C29.8667 44.4074 27.2667 44.9324 24.5 44.9324ZM24.5 40.9324C28.9667 40.9324 32.75 39.3824 35.85 36.2824C38.95 33.1824 40.5 29.399 40.5 24.9324C40.5 24.699 40.4917 24.4574 40.475 24.2074C40.4583 23.9574 40.45 23.749 40.45 23.5824C40.2833 24.549 39.8333 25.349 39.1 25.9824C38.3667 26.6157 37.5 26.9324 36.5 26.9324H32.5C31.4 26.9324 30.4583 26.5407 29.675 25.7574C28.8917 24.974 28.5 24.0324 28.5 22.9324V20.9324H20.5V16.9324C20.5 15.8324 20.8917 14.8907 21.675 14.1074C22.4583 13.324 23.4 12.9324 24.5 12.9324H26.5C26.5 12.1657 26.7083 11.4907 27.125 10.9074C27.5417 10.324 28.05 9.84904 28.65 9.48237C27.9833 9.31571 27.3083 9.18237 26.625 9.08237C25.9417 8.98237 25.2333 8.93237 24.5 8.93237C20.0333 8.93237 16.25 10.4824 13.15 13.5824C10.05 16.6824 8.5 20.4657 8.5 24.9324H18.5C20.7 24.9324 22.5833 25.7157 24.15 27.2824C25.7167 28.849 26.5 30.7324 26.5 32.9324V34.9324H20.5V40.4324C21.1667 40.599 21.825 40.724 22.475 40.8074C23.125 40.8907 23.8 40.9324 24.5 40.9324Z" fill="#0D3F2A"></path></g></svg>