<svg xmlns="http://www.w3.org/2000/svg" width="49" height="49" viewBox="0 0 49 49" fill="none"><mask id="mask0_13_445" style="mask-type:alpha" maskUnits="userSpaceOnUse" x="0" y="0" width="49" height="49"><rect x="0.5" y="0.932373" width="48" height="48" fill="#D9D9D9"></rect></mask><g mask="url(#mask0_13_445)"><path d="M22.5 39.7824V26.0824L10.5 19.1324V32.8324L22.5 39.7824ZM26.5 39.7824L38.5 32.8324V19.1324L26.5 26.0824V39.7824ZM22.5 44.3824L8.5 36.3324C7.86667 35.9657 7.375 35.4824 7.025 34.8824C6.675 34.2824 6.5 33.6157 6.5 32.8824V16.9824C6.5 16.249 6.675 15.5824 7.025 14.9824C7.375 14.3824 7.86667 13.899 8.5 13.5324L22.5 5.48237C23.1333 5.11571 23.8 4.93237 24.5 4.93237C25.2 4.93237 25.8667 5.11571 26.5 5.48237L40.5 13.5324C41.1333 13.899 41.625 14.3824 41.975 14.9824C42.325 15.5824 42.5 16.249 42.5 16.9824V32.8824C42.5 33.6157 42.325 34.2824 41.975 34.8824C41.625 35.4824 41.1333 35.9657 40.5 36.3324L26.5 44.3824C25.8667 44.749 25.2 44.9324 24.5 44.9324C23.8 44.9324 23.1333 44.749 22.5 44.3824ZM32.5 17.9824L36.35 15.7824L24.5 8.93237L20.6 11.1824L32.5 17.9824ZM24.5 22.6324L28.4 20.3824L16.55 13.5324L12.65 15.7824L24.5 22.6324Z" fill="#0D3F2A"></path></g></svg>