<svg xmlns="http://www.w3.org/2000/svg" width="49" height="49" viewBox="0 0 49 49" fill="none"><mask id="mask0_13_452" style="mask-type:alpha" maskUnits="userSpaceOnUse" x="0" y="0" width="49" height="49"><rect x="0.5" y="0.932373" width="48" height="48" fill="#D9D9D9"></rect></mask><g mask="url(#mask0_13_452)"><path d="M15.5 22.9324C13.5667 22.9324 11.9167 22.249 10.55 20.8824C9.18333 19.5157 8.5 17.8657 8.5 15.9324C8.5 13.999 9.18333 12.349 10.55 10.9824C11.9167 9.61571 13.5667 8.93237 15.5 8.93237C17.4333 8.93237 19.0833 9.61571 20.45 10.9824C21.8167 12.349 22.5 13.999 22.5 15.9324C22.5 17.8657 21.8167 19.5157 20.45 20.8824C19.0833 22.249 17.4333 22.9324 15.5 22.9324ZM15.5 18.9324C16.3333 18.9324 17.0417 18.6407 17.625 18.0574C18.2083 17.474 18.5 16.7657 18.5 15.9324C18.5 15.099 18.2083 14.3907 17.625 13.8074C17.0417 13.224 16.3333 12.9324 15.5 12.9324C14.6667 12.9324 13.9583 13.224 13.375 13.8074C12.7917 14.3907 12.5 15.099 12.5 15.9324C12.5 16.7657 12.7917 17.474 13.375 18.0574C13.9583 18.6407 14.6667 18.9324 15.5 18.9324ZM33.5 40.9324C31.5667 40.9324 29.9167 40.249 28.55 38.8824C27.1833 37.5157 26.5 35.8657 26.5 33.9324C26.5 31.999 27.1833 30.349 28.55 28.9824C29.9167 27.6157 31.5667 26.9324 33.5 26.9324C35.4333 26.9324 37.0833 27.6157 38.45 28.9824C39.8167 30.349 40.5 31.999 40.5 33.9324C40.5 35.8657 39.8167 37.5157 38.45 38.8824C37.0833 40.249 35.4333 40.9324 33.5 40.9324ZM33.5 36.9324C34.3333 36.9324 35.0417 36.6407 35.625 36.0574C36.2083 35.474 36.5 34.7657 36.5 33.9324C36.5 33.099 36.2083 32.3907 35.625 31.8074C35.0417 31.224 34.3333 30.9324 33.5 30.9324C32.6667 30.9324 31.9583 31.224 31.375 31.8074C30.7917 32.3907 30.5 33.099 30.5 33.9324C30.5 34.7657 30.7917 35.474 31.375 36.0574C31.9583 36.6407 32.6667 36.9324 33.5 36.9324ZM11.3 40.9324L8.5 38.1324L37.7 8.93237L40.5 11.7324L11.3 40.9324Z" fill="#0D3F2A"></path></g></svg>