<svg xmlns="http://www.w3.org/2000/svg" width="49" height="49" viewBox="0 0 49 49" fill="none"><mask id="mask0_13_426" style="mask-type:alpha" maskUnits="userSpaceOnUse" x="0" y="0" width="49" height="49"><rect x="0.5" y="0.932373" width="48" height="48" fill="#D9D9D9"></rect></mask><g mask="url(#mask0_13_426)"><path d="M21.4499 44.9323C20.5166 44.9323 19.6416 44.7323 18.8249 44.3323C18.0082 43.9323 17.3166 43.3657 16.7499 42.6323L5.84991 28.7823L6.79991 27.7823C7.46658 27.0823 8.26658 26.6657 9.19991 26.5323C10.1332 26.399 10.9999 26.5823 11.7999 27.0823L15.4999 29.3323V12.9323C15.4999 12.3657 15.6916 11.8907 16.0749 11.5073C16.4582 11.124 16.9332 10.9323 17.4999 10.9323C18.0666 10.9323 18.5499 11.124 18.9499 11.5073C19.3499 11.8907 19.5499 12.3657 19.5499 12.9323V36.5323L14.6999 33.5323L19.8999 40.1823C20.0999 40.4157 20.3332 40.599 20.5999 40.7323C20.8666 40.8657 21.1499 40.9323 21.4499 40.9323H32.4999C33.5999 40.9323 34.5416 40.5407 35.3249 39.7573C36.1082 38.974 36.4999 38.0323 36.4999 36.9323V28.9323C36.4999 28.3657 36.3082 27.8907 35.9249 27.5073C35.5416 27.124 35.0666 26.9323 34.4999 26.9323H23.5499V22.9323H34.4999C36.1666 22.9323 37.5833 23.5157 38.7499 24.6823C39.9166 25.849 40.4999 27.2657 40.4999 28.9323V36.9323C40.4999 39.1323 39.7166 41.0157 38.1499 42.5823C36.5832 44.149 34.6999 44.9323 32.4999 44.9323H21.4499ZM8.84991 17.9323C8.41658 17.199 8.08325 16.4073 7.84991 15.5573C7.61658 14.7073 7.49991 13.8323 7.49991 12.9323C7.49991 10.1657 8.47491 7.80733 10.4249 5.85733C12.3749 3.90733 14.7332 2.93233 17.4999 2.93233C20.2666 2.93233 22.6249 3.90733 24.5749 5.85733C26.5249 7.80733 27.4999 10.1657 27.4999 12.9323C27.4999 13.8323 27.3832 14.7073 27.1499 15.5573C26.9166 16.4073 26.5832 17.199 26.1499 17.9323L22.6999 15.9323C22.9666 15.4657 23.1666 14.9907 23.2999 14.5073C23.4332 14.024 23.4999 13.499 23.4999 12.9323C23.4999 11.2657 22.9166 9.84899 21.7499 8.68233C20.5832 7.51566 19.1666 6.93233 17.4999 6.93233C15.8332 6.93233 14.4166 7.51566 13.2499 8.68233C12.0832 9.84899 11.4999 11.2657 11.4999 12.9323C11.4999 13.499 11.5666 14.024 11.6999 14.5073C11.8332 14.9907 12.0332 15.4657 12.2999 15.9323L8.84991 17.9323Z" fill="#0D3F2A"></path></g></svg>